
endheader
time	pelvis_tilt	pelvis_list	pelvis_rotation	pelvis_tx	pelvis_ty	pelvis_tz	hip_flexion_r	hip_adduction_r	hip_rotation_r	knee_angle_r	ankle_angle_r	subtalar_angle_r	mtp_angle_r	hip_flexion_l	hip_adduction_l	hip_rotation_l	knee_angle_l	ankle_angle_l	subtalar_angle_l	mtp_angle_l	lumbar_extension	lumbar_bending	lumbar_rotation	arm_flex_r	arm_add_r	arm_rot_r	elbow_flex_r	pro_sup_r	wrist_flex_r	wrist_dev_r	arm_flex_l	arm_add_l	arm_rot_l	elbow_flex_l	pro_sup_l	wrist_flex_l	wrist_dev_l
2.7075	-0.131845	-0.0129796	3.19322	-0.293471	0.973179	0.0450584	0.370255	-0.118281	-0.280765	0.630787	0.0256567	0	0	-0.223554	0.0644428	0.0221917	0.181989	0.256079	0	0	-0.335782	0.0213681	-0.111102	0.0195457	-0.44235	1.56163	0.366085	-0.00333776	0	0	0.790941	-0.330116	1.5272	0.663524	0.3106	0	0
2.7175	-0.131475	-0.0143791	3.19213	-0.292558	0.971002	0.0446468	0.374476	-0.113466	-0.278007	0.569213	0.0277054	0	0	-0.243015	0.0653265	0.0259419	0.172169	0.265261	0	0	-0.336719	0.0202048	-0.118009	0.00693609	-0.450006	1.55467	0.364066	-0.00253116	0	0	0.808511	-0.340093	1.50864	0.681509	0.336126	0	0
2.72749	-0.130772	-0.0158635	3.19107	-0.291764	0.968656	0.0441369	0.378174	-0.108389	-0.273461	0.50791	0.0306626	0	0	-0.261657	0.0660807	0.0294309	0.163569	0.274817	0	0	-0.33728	0.0189067	-0.124625	-0.00528026	-0.457016	1.54571	0.361947	-0.00181534	0	0	0.824175	-0.349964	1.48732	0.698915	0.361422	0	0
2.73748	-0.129708	-0.0173136	3.1902	-0.291101	0.966173	0.0435454	0.381557	-0.103052	-0.266936	0.447944	0.0348604	0	0	-0.279368	0.0665472	0.0327248	0.156349	0.284682	0	0	-0.337391	0.0176667	-0.13098	-0.0171591	-0.463367	1.53474	0.359728	-0.00121458	0	0	0.837959	-0.359475	1.46392	0.71549	0.386069	0	0
2.74747	-0.128307	-0.0186107	3.18968	-0.290579	0.963586	0.0428876	0.384793	-0.0974838	-0.258323	0.390475	0.0404409	0	0	-0.296077	0.06656	0.0358754	0.150679	0.294775	0	0	-0.337023	0.0166734	-0.137091	-0.0287304	-0.469042	1.52192	0.357407	-0.000735087	0	0	0.849921	-0.368386	1.43923	0.731005	0.409637	0	0
2.75746	-0.126638	-0.0196441	3.18965	-0.290213	0.960934	0.0421774	0.387999	-0.0917484	-0.24767	0.336724	0.0473206	0	0	-0.311771	0.0659533	0.0389332	0.14672	0.304991	0	0	-0.336206	0.0161026	-0.142976	-0.0400036	-0.474032	1.50751	0.354992	-0.000370975	0	0	0.860132	-0.376485	1.41402	0.745273	0.431746	0	0
2.76745	-0.124814	-0.0203212	3.19025	-0.290013	0.958254	0.0414267	0.391252	-0.0859499	-0.235243	0.287935	0.0551903	0	0	-0.326487	0.0645749	0.041958	0.144615	0.315191	0	0	-0.335015	0.0161049	-0.148645	-0.0509742	-0.478329	1.49179	0.352501	-0.000109022	0	0	0.868674	-0.383598	1.38899	0.758155	0.452074	0	0
2.77744	-0.122971	-0.0205754	3.19157	-0.289994	0.955586	0.0406439	0.394597	-0.0802253	-0.221538	0.245329	0.0635456	0	0	-0.340305	0.0622972	0.0450099	0.14447	0.325197	0	0	-0.333554	0.0167935	-0.154107	-0.0616279	-0.481928	1.4751	0.349969	6.7684e-05	0	0	0.875628	-0.389595	1.36476	0.769566	0.470367	0	0
2.78743	-0.121249	-0.0203689	3.1937	-0.29017	0.952966	0.0398336	0.39808	-0.074729	-0.207262	0.210043	0.0717342	0	0	-0.353323	0.0590238	0.0481371	0.146356	0.334786	0	0	-0.331939	0.0182381	-0.159367	-0.0719416	-0.484824	1.45778	0.347443	0.000177144	0	0	0.881074	-0.394393	1.34186	0.779471	0.486433	0	0
2.79742	-0.119775	-0.0196874	3.1967	-0.290552	0.950423	0.0389967	0.40174	-0.0696069	-0.193269	0.183034	0.0789978	0	0	-0.365639	0.0546898	0.0513696	0.150308	0.343686	0	0	-0.330271	0.0204682	-0.16442	-0.0818824	-0.48702	1.44023	0.344979	0.000236684	0	0	0.885081	-0.397952	1.3207	0.787879	0.500159	0	0
2.80741	-0.118655	-0.0185283	3.20059	-0.291152	0.947984	0.0381302	0.405598	-0.0649664	-0.180451	0.164959	0.0845183	0	0	-0.377328	0.0492523	0.054704	0.156343	0.351567	0	0	-0.328627	0.0234854	-0.169255	-0.091406	-0.48852	1.42285	0.342639	0.000261865	0	0	0.8877	-0.400273	1.30159	0.794832	0.511506	0	0
2.8174	-0.117964	-0.0168874	3.20534	-0.291981	0.94567	0.0372277	0.409624	-0.0608533	-0.169608	0.15604	0.0874754	0	0	-0.388419	0.0426784	0.0580841	0.164486	0.358047	0	0	-0.327052	0.0272784	-0.173852	-0.100454	-0.489335	1.40604	0.340491	0.000265888	0	0	0.888958	-0.401391	1.28476	0.800385	0.520504	0	0
2.82739	-0.117741	-0.0147525	3.21092	-0.293044	0.943499	0.0362802	0.413716	-0.057244	-0.161352	0.155983	0.0871286	0	0	-0.398878	0.0349379	0.0613856	0.174793	0.362699	0	0	-0.325547	0.0318318	-0.178186	-0.108955	-0.489482	1.39022	0.3386	0.000259348	0	0	0.888858	-0.401369	1.27034	0.804595	0.52723	0	0
2.83738	-0.117988	-0.0121038	3.21725	-0.294348	0.941484	0.0352781	0.41771	-0.0540586	-0.15606	0.163996	0.082942	0	0	-0.408585	0.0260019	0.0644153	0.18738	0.365064	0	0	-0.324066	0.0371287	-0.18223	-0.116819	-0.488986	1.37578	0.337019	0.00025019	0	0	0.887383	-0.400287	1.25841	0.807507	0.531794	0	0
2.84738	-0.118666	-0.00892346	3.22426	-0.295893	0.939635	0.034212	0.421419	-0.0511901	-0.15388	0.178925	0.0747194	0	0	-0.417332	0.0158508	0.0669328	0.202432	0.364648	0	0	-0.322522	0.0431426	-0.185969	-0.123944	-0.487872	1.36316	0.335776	0.000243773	0	0	0.884507	-0.398233	1.24903	0.809135	0.534305	0	0
2.85737	-0.119703	-0.00520915	3.23185	-0.297674	0.937956	0.0330745	0.424688	-0.0485393	-0.154781	0.199451	0.0627063	0	0	-0.424823	0.00448317	0.0686819	0.2202	0.360933	0	0	-0.320793	0.0498255	-0.189404	-0.130209	-0.486162	1.35278	0.334875	0.000242966	0	0	0.88021	-0.395302	1.2423	0.809459	0.534872	0	0
2.86736	-0.120998	-0.000988233	3.23994	-0.299679	0.936451	0.0318607	0.427425	-0.0460426	-0.158585	0.224261	0.0476143	0	0	-0.430688	-0.00807048	0.0694227	0.240991	0.353389	0	0	-0.318738	0.0570938	-0.19255	-0.135487	-0.483876	1.34503	0.334301	0.000248207	0	0	0.87449	-0.391586	1.2383	0.808431	0.533597	0	0
2.87735	-0.122433	0.00367557	3.24841	-0.30189	0.935117	0.0305676	0.429601	-0.0436767	-0.165003	0.252176	0.0305454	0	0	-0.434501	-0.0217369	0.0689573	0.265152	0.341493	0	0	-0.316218	0.0648201	-0.195423	-0.139653	-0.481027	1.3402	0.334022	0.000257516	0	0	0.867377	-0.387171	1.23718	0.805978	0.530569	0	0
2.88734	-0.123879	0.00868429	3.25715	-0.304277	0.93395	0.0291927	0.431247	-0.0414435	-0.173648	0.282219	0.0128515	0	0	-0.435808	-0.0363946	0.0671376	0.29303	0.324778	0	0	-0.313118	0.0728339	-0.19801	-0.142582	-0.477628	1.33844	0.334005	0.000266438	0	0	0.858942	-0.382129	1.23908	0.802018	0.525853	0	0
2.89733	-0.125212	0.0139188	3.26599	-0.306799	0.932943	0.0277332	0.432424	-0.03934	-0.184056	0.313619	-0.00401266	0	0	-0.434164	-0.0518803	0.0638607	0.324944	0.302885	0	0	-0.309371	0.0809356	-0.200245	-0.144156	-0.473696	1.33983	0.334217	0.000267951	0	0	0.849303	-0.376509	1.24416	0.796464	0.519473	0	0
2.90732	-0.126332	0.0192597	3.27471	-0.309409	0.932094	0.0261848	0.433191	-0.0373217	-0.195693	0.345753	-0.0186333	0	0	-0.429175	-0.0680052	0.0590683	0.36114	0.275621	0	0	-0.304982	0.0889212	-0.201993	-0.144256	-0.469255	1.34431	0.334642	0.000252383	0	0	0.838626	-0.370335	1.2526	0.789236	0.511411	0	0
2.91731	-0.127177	0.0246105	3.28307	-0.312045	0.9314	0.0245415	0.433551	-0.0352716	-0.207969	0.378049	-0.0297916	0	0	-0.42055	-0.0845741	0.0527577	0.401746	0.243019	0	0	-0.300039	0.0966122	-0.203051	-0.142756	-0.464346	1.35172	0.335284	0.000207387	0	0	0.827115	-0.363609	1.2645	0.780269	0.501605	0	0
2.9273	-0.127742	0.0299178	3.29079	-0.314643	0.930868	0.0227956	0.433405	-0.0329839	-0.220275	0.409891	-0.0366103	0	0	-0.408148	-0.101406	0.0449974	0.446727	0.20537	0	0	-0.294726	0.103888	-0.203164	-0.139514	-0.459028	1.36183	0.336174	0.000118106	0	0	0.814988	-0.356322	1.27994	0.769514	0.489959	0	0
2.93729	-0.128094	0.035184	3.29759	-0.317132	0.93051	0.0209403	0.432524	-0.0301749	-0.232052	0.440582	-0.0386442	0	0	-0.392017	-0.11835	0.0359472	0.495848	0.16324	0	0	-0.289313	0.110707	-0.202067	-0.134375	-0.453384	1.37432	0.337365	-3.23866e-05	0	0	0.802455	-0.348461	1.29887	0.756948	0.476364	0	0
2.94728	-0.128367	0.0404536	3.30326	-0.319447	0.930349	0.0189727	0.430572	-0.0265286	-0.242843	0.469384	-0.0358876	0	0	-0.372401	-0.135276	0.0258772	0.548652	0.117449	0	0	-0.284137	0.117107	-0.199529	-0.12718	-0.447511	1.3888	0.338924	-0.000262192	0	0	0.789681	-0.340024	1.32109	0.742581	0.46073	0	0
2.95727	-0.128738	0.0457771	3.30763	-0.321529	0.930411	0.0168965	0.427148	-0.0217668	-0.252318	0.495567	-0.028734	0	0	-0.349709	-0.152043	0.0151543	0.604476	0.0690159	0	0	-0.279558	0.123164	-0.195409	-0.117779	-0.441511	1.40484	0.34093	-0.00058909	0	0	0.776762	-0.331042	1.3462	0.726477	0.443019	0	0
2.96727	-0.129386	0.0511717	3.31064	-0.323329	0.930728	0.0147238	0.421865	-0.0157111	-0.260264	0.518479	-0.0179088	0	0	-0.324434	-0.168474	0.00419552	0.662502	0.0190814	0	0	-0.275901	0.128941	-0.189695	-0.106045	-0.435468	1.42195	0.343454	-0.00102825	0	0	0.763703	-0.321589	1.37361	0.708754	0.423258	0	0
2.97726	-0.130458	0.0565978	3.3123	-0.324809	0.93133	0.0124751	0.414395	-0.00831416	-0.26655	0.537582	-0.00433902	0	0	-0.297097	-0.184341	-0.00657462	0.721797	-0.0311401	0	0	-0.273411	0.134459	-0.182525	-0.0918785	-0.429443	1.43963	0.346551	-0.00158896	0	0	0.750406	-0.3118	1.40249	0.689607	0.401577	0	0
2.98725	-0.132039	0.0619567	3.31273	-0.325946	0.932243	0.0101771	0.404527	0.000334296	-0.271104	0.552507	0.0110099	0	0	-0.268194	-0.199363	-0.0167555	0.781368	-0.0803751	0	0	-0.272221	0.139681	-0.174175	-0.0752219	-0.42346	1.45744	0.350247	-0.00227029	0	0	0.736672	-0.301868	1.43184	0.669299	0.378217	0	0
